<svg width="28" height="32" viewBox="0 0 28 32" fill="none" xmlns="http://www.w3.org/2000/svg">
<g clip-path="url(#clip0_2301_119)">
<path d="M14.0063 8.81245C10.0313 8.81245 6.82505 12.0187 6.82505 15.9937C6.82505 19.9687 10.0313 23.1749 14.0063 23.1749C17.9813 23.1749 21.1875 19.9687 21.1875 15.9937C21.1875 12.0187 17.9813 8.81245 14.0063 8.81245ZM14.0063 20.6624C11.4375 20.6624 9.33754 18.5687 9.33754 15.9937C9.33754 13.4187 11.4313 11.325 14.0063 11.325C16.5813 11.325 18.675 13.4187 18.675 15.9937C18.675 18.5687 16.575 20.6624 14.0063 20.6624ZM23.1563 8.5187C23.1563 9.44995 22.4063 10.1937 21.4813 10.1937C20.55 10.1937 19.8063 9.4437 19.8063 8.5187C19.8063 7.5937 20.5563 6.8437 21.4813 6.8437C22.4063 6.8437 23.1563 7.5937 23.1563 8.5187ZM27.9125 10.2187C27.8063 7.97495 27.2938 5.98745 25.65 4.34995C24.0125 2.71245 22.025 2.19995 19.7813 2.08745C17.4688 1.9562 10.5375 1.9562 8.22505 2.08745C5.98755 2.1937 4.00005 2.7062 2.3563 4.3437C0.712549 5.9812 0.206299 7.9687 0.0937988 10.2125C-0.0374512 12.525 -0.0374512 19.4562 0.0937988 21.7687C0.200049 24.0124 0.712549 26 2.3563 27.6374C4.00005 29.275 5.9813 29.7874 8.22505 29.8999C10.5375 30.0312 17.4688 30.0312 19.7813 29.8999C22.025 29.7937 24.0125 29.2812 25.65 27.6374C27.2875 26 27.8 24.0124 27.9125 21.7687C28.0438 19.4562 28.0438 12.5312 27.9125 10.2187ZM24.925 24.2499C24.4375 25.4749 23.4938 26.4187 22.2625 26.9124C20.4188 27.6437 16.0438 27.4749 14.0063 27.4749C11.9688 27.4749 7.58754 27.6374 5.75005 26.9124C4.52505 26.4249 3.5813 25.4812 3.08755 24.2499C2.3563 22.4062 2.52505 18.0312 2.52505 15.9937C2.52505 13.9562 2.36255 9.57495 3.08755 7.73745C3.57505 6.51245 4.5188 5.5687 5.75005 5.07495C7.59379 4.3437 11.9688 4.51245 14.0063 4.51245C16.0438 4.51245 20.425 4.34995 22.2625 5.07495C23.4875 5.56245 24.4313 6.5062 24.925 7.73745C25.6563 9.5812 25.4875 13.9562 25.4875 15.9937C25.4875 18.0312 25.6563 22.4124 24.925 24.2499Z" fill="#3C3A47"/>
</g>
<defs>
<clipPath id="clip0_2301_119">
<rect width="28" height="32" fill="white"/>
</clipPath>
</defs>
</svg>
